<svg id="Capa_1" enable-background="new 0 0 512 512" height="512" viewBox="0 0 512 512" width="512" xmlns="http://www.w3.org/2000/svg"><g><g><g><path d="m91.171 314.494c-4.142 0-7.5-3.358-7.5-7.5v-263.726c0-4.142 3.358-7.5 7.5-7.5s7.5 3.358 7.5 7.5v263.727c0 4.141-3.358 7.499-7.5 7.499z" fill="#d4d4d5"/></g><g><path d="m173.585 314.494c-4.142 0-7.5-3.358-7.5-7.5v-125.892c0-4.142 3.358-7.5 7.5-7.5s7.5 3.358 7.5 7.5v125.893c0 4.141-3.357 7.499-7.5 7.499z" fill="#d4d4d5"/></g><g><path d="m173.585 157.696c-4.142 0-7.5-3.358-7.5-7.5v-106.928c0-4.142 3.358-7.5 7.5-7.5s7.5 3.358 7.5 7.5v106.929c0 4.141-3.357 7.499-7.5 7.499z" fill="#d4d4d5"/></g><g><path d="m256 314.494c-4.142 0-7.5-3.358-7.5-7.5v-263.726c0-4.142 3.358-7.5 7.5-7.5s7.5 3.358 7.5 7.5v263.727c0 4.141-3.358 7.499-7.5 7.499z" fill="#d4d4d5"/></g><g><path d="m338.415 314.494c-4.142 0-7.5-3.358-7.5-7.5v-263.726c0-4.142 3.358-7.5 7.5-7.5s7.5 3.358 7.5 7.5v263.727c0 4.141-3.358 7.499-7.5 7.499z" fill="#d4d4d5"/></g><g><path d="m420.829 314.494c-4.142 0-7.5-3.358-7.5-7.5v-263.726c0-4.142 3.358-7.5 7.5-7.5s7.5 3.358 7.5 7.5v263.727c0 4.141-3.358 7.499-7.5 7.499z" fill="#d4d4d5"/></g><g><g><path d="m490.194 131.122h-468.388c-4.142 0-7.5-3.358-7.5-7.5s3.358-7.5 7.5-7.5h468.389c4.142 0 7.5 3.358 7.5 7.5s-3.359 7.5-7.501 7.5z" fill="#efedee"/></g><g><path d="m490.194 213.536h-468.388c-4.142 0-7.5-3.358-7.5-7.5s3.358-7.5 7.5-7.5h468.389c4.142 0 7.5 3.358 7.5 7.5s-3.359 7.5-7.501 7.5z" fill="#efedee"/></g></g></g><g><path d="m460.491 512h-408.982c-28.448 0-51.509-23.061-51.509-51.509v-172.04h512v172.04c0 28.448-23.061 51.509-51.509 51.509z" fill="#5fd9b3"/></g><g><path d="m91.171 460.491v-172.04h-91.171v172.04c0 28.448 23.061 51.509 51.509 51.509h91.171c-28.448 0-51.509-23.061-51.509-51.509z" fill="#00ce8e"/></g><g><path d="m0 82.414v288.451c0 11.379 9.225 20.604 20.604 20.604 11.379 0 20.604-9.225 20.604-20.604v-288.451c0-22.758 18.449-41.207 41.207-41.207h347.171c22.758 0 41.207 18.449 41.207 41.207v288.451c0 11.379 9.225 20.604 20.604 20.604 11.379 0 20.604-9.225 20.604-20.604v-288.451c-.001-45.516-36.899-82.414-82.415-82.414h-347.172c-45.516 0-82.414 36.898-82.414 82.414z" fill="#efedee"/></g><g><path d="m345.403 282.001c-14.037-12.862-30.855-22.735-49.45-28.615h-79.906c-18.595 5.88-35.413 15.753-49.45 28.615l-39.878 69.071c-2.022 9.196-3.097 18.747-3.097 28.55s1.075 19.354 3.097 28.55l39.878 69.071c14.037 12.862 30.855 22.735 49.45 28.615h79.906c18.595-5.88 35.413-15.753 49.45-28.615l39.878-69.071c2.022-9.196 3.097-18.747 3.097-28.55s-1.075-19.354-3.097-28.55z" fill="#efedee"/></g><g><path d="m166.587 282.017-39.878 69.071c-2.019 9.19-3.087 18.736-3.087 28.533 0 9.803 1.075 19.354 3.097 28.55l39.878 69.071c14.037 12.862 30.855 22.735 49.45 28.615h79.906v.003c18.598-5.882 35.419-15.762 49.457-28.63l12.205-21.14c-18.044 9.22-38.48 14.428-60.134 14.428-73.111 0-132.378-59.268-132.378-132.378 0-25.934 7.464-50.122 20.352-70.545-6.723 4.243-13.034 9.076-18.868 14.422z" fill="#d4d4d5"/></g><g><path d="m221.374 353.479 29.299-16.916c3.296-1.903 7.358-1.903 10.654 0l29.299 16.916c3.296 1.903 5.327 5.42 5.327 9.227v33.832c0 3.806-2.031 7.324-5.327 9.227l-29.299 16.916c-3.296 1.903-7.358 1.903-10.654 0l-29.299-16.916c-3.296-1.903-5.327-5.42-5.327-9.227v-33.832c0-3.806 2.03-7.324 5.327-9.227z" fill="#676f72"/></g><g><path d="m256 247.243c-13.925 0-27.346 2.156-39.953 6.142v10.774c0 3.806 2.031 7.324 5.327 9.227l29.299 16.916c3.296 1.903 7.358 1.903 10.654 0l29.299-16.916c3.296-1.903 5.327-5.42 5.327-9.227v-10.774c-12.607-3.986-26.028-6.142-39.953-6.142z" fill="#676f72"/></g><g><path d="m290.626 485.857-29.299-16.916c-3.296-1.903-7.358-1.903-10.654 0l-29.299 16.916c-3.296 1.903-5.327 5.42-5.327 9.227v10.773c12.607 3.987 26.028 6.143 39.953 6.143s27.346-2.156 39.953-6.142v-10.773c0-3.807-2.03-7.324-5.327-9.228z" fill="#4c5659"/></g><g><path d="m126.71 351.11 9.32 5.381c3.296 1.903 7.358 1.903 10.654 0l29.299-16.916c3.296-1.903 5.327-5.42 5.327-9.227v-33.832c0-3.806-2.031-7.324-5.327-9.227l-9.3-5.369c-19.766 18.08-34.021 42.079-39.973 69.19z" fill="#676f72"/></g><g><path d="m375.97 402.752c-3.296-1.903-7.358-1.903-10.654 0l-29.299 16.916c-3.296 1.903-5.327 5.42-5.327 9.227v33.832c0 3.806 2.031 7.324 5.327 9.227l9.3 5.369c19.766-18.08 34.021-42.078 39.973-69.19z" fill="#676f72"/></g><g><path d="m175.983 419.668-29.299-16.916c-3.296-1.903-7.358-1.903-10.654 0l-9.32 5.381c5.952 27.111 20.207 51.11 39.973 69.19l9.3-5.369c3.296-1.903 5.327-5.42 5.327-9.227v-33.832c0-3.806-2.03-7.324-5.327-9.227z" fill="#4c5659"/></g><g><path d="m345.317 281.921-9.3 5.369c-3.296 1.903-5.327 5.42-5.327 9.227v33.832c0 3.806 2.031 7.324 5.327 9.227l29.299 16.916c3.296 1.903 7.358 1.903 10.654 0l9.32-5.381c-5.952-27.112-20.207-51.111-39.973-69.19z" fill="#676f72"/></g><g><path d="m331.259 466.164c.82 2.406 2.489 4.48 4.757 5.79l9.3 5.369c8.723-7.979 16.37-17.112 22.707-27.154-11.228 7.085-23.594 12.529-36.764 15.995z" fill="#4c5659"/></g><g><path d="m165.102 338.141c0-18.154 3.658-35.452 10.271-51.203l-8.69-5.017c-19.766 18.08-34.021 42.078-39.973 69.19l9.32 5.381c3.296 1.903 7.358 1.903 10.654 0l18.64-10.762c-.142-2.513-.222-5.041-.222-7.589z" fill="#4c5659"/></g><g><path d="m214.793 0h-132.379c-45.516 0-82.414 36.898-82.414 82.414v288.451c0 11.379 9.225 20.604 20.604 20.604s20.604-9.225 20.604-20.604v-288.451c0-22.758 18.449-41.207 41.207-41.207h132.378c-11.379 0-20.604-9.225-20.604-20.604s9.225-20.603 20.604-20.603z" fill="#d4d4d5"/></g></g></svg>